<mxfile host="app.diagrams.net" modified="2022-05-12T03:35:33.672Z" agent="5.0 (Macintosh; Intel Mac OS X 11_6_1) AppleWebKit/537.36 (KHTML, like Gecko) Chrome/89.0.4389.114 Safari/537.36" etag="BpDDH0m-gIlYcufys-9D" version="18.0.3" type="github">
  <diagram id="d8w7R_K9KF0pSqCfr8D_" name="Page-1">
    <mxGraphModel dx="1426" dy="794" grid="1" gridSize="10" guides="1" tooltips="1" connect="1" arrows="1" fold="1" page="1" pageScale="1" pageWidth="827" pageHeight="1169" math="0" shadow="0">
      <root>
        <mxCell id="0" />
        <mxCell id="1" parent="0" />
        <mxCell id="V_4nD2PLSTLIcI9bDjK_-5" style="rounded=0;orthogonalLoop=1;jettySize=auto;html=1;strokeWidth=1;endArrow=none;endFill=0;" edge="1" parent="1" source="V_4nD2PLSTLIcI9bDjK_-1">
          <mxGeometry relative="1" as="geometry">
            <mxPoint x="130" y="1150" as="targetPoint" />
          </mxGeometry>
        </mxCell>
        <mxCell id="V_4nD2PLSTLIcI9bDjK_-1" value="保险大厅" style="rounded=0;whiteSpace=wrap;html=1;" vertex="1" parent="1">
          <mxGeometry x="80" y="40" width="120" height="60" as="geometry" />
        </mxCell>
        <mxCell id="V_4nD2PLSTLIcI9bDjK_-2" value="商户系统" style="rounded=0;whiteSpace=wrap;html=1;" vertex="1" parent="1">
          <mxGeometry x="400" y="40" width="120" height="60" as="geometry" />
        </mxCell>
        <mxCell id="V_4nD2PLSTLIcI9bDjK_-3" value="合同系统" style="rounded=0;whiteSpace=wrap;html=1;" vertex="1" parent="1">
          <mxGeometry x="720" y="40" width="120" height="60" as="geometry" />
        </mxCell>
        <mxCell id="V_4nD2PLSTLIcI9bDjK_-4" value="磐石系统" style="rounded=0;whiteSpace=wrap;html=1;" vertex="1" parent="1">
          <mxGeometry x="1040" y="40" width="120" height="60" as="geometry" />
        </mxCell>
        <mxCell id="V_4nD2PLSTLIcI9bDjK_-6" style="rounded=0;orthogonalLoop=1;jettySize=auto;html=1;strokeWidth=1;endArrow=none;endFill=0;" edge="1" parent="1">
          <mxGeometry relative="1" as="geometry">
            <mxPoint x="455.14" y="1150" as="targetPoint" />
            <mxPoint x="464.86222222222216" y="100" as="sourcePoint" />
          </mxGeometry>
        </mxCell>
        <mxCell id="V_4nD2PLSTLIcI9bDjK_-7" style="rounded=0;orthogonalLoop=1;jettySize=auto;html=1;strokeWidth=1;endArrow=none;endFill=0;" edge="1" parent="1">
          <mxGeometry relative="1" as="geometry">
            <mxPoint x="775.14" y="1150" as="targetPoint" />
            <mxPoint x="784.8622222222222" y="100" as="sourcePoint" />
          </mxGeometry>
        </mxCell>
        <mxCell id="V_4nD2PLSTLIcI9bDjK_-8" style="rounded=0;orthogonalLoop=1;jettySize=auto;html=1;strokeWidth=1;endArrow=none;endFill=0;" edge="1" parent="1">
          <mxGeometry relative="1" as="geometry">
            <mxPoint x="1090" y="1150" as="targetPoint" />
            <mxPoint x="1099.7222222222222" y="100" as="sourcePoint" />
          </mxGeometry>
        </mxCell>
      </root>
    </mxGraphModel>
  </diagram>
</mxfile>
